<?xml version="1.0" encoding="UTF-8"?>
<svg width="752pt" height="752pt" version="1.1" viewBox="0 0 752 752" xmlns="http://www.w3.org/2000/svg">
 <defs>
  <clipPath id="b">
   <path d="m224 139.21h304v382.79h-304z"/>
  </clipPath>
  <clipPath id="a">
   <path d="m349 557h55v55.793h-55z"/>
  </clipPath>
 </defs>
 <g>
  <g clip-path="url(#b)">
   <path d="m272.89 291.38c0 12.801-11.379 24.176-24.176 24.176-12.801 0-24.176-11.379-24.176-24.176 0-83.906 68.266-152.17 152.17-152.17 82.484 0 150.75 68.266 150.75 152.17 0 73.953-54.043 137.95-128 149.33l1.4219 56.887c0 12.801-11.379 24.176-24.176 24.176-14.223 0-24.176-11.379-24.176-24.176v-76.797c-1.4219-14.223 8.5312-27.02 24.176-27.02 56.887 0 102.39-45.508 102.39-102.39 0-58.309-45.508-103.82-102.39-103.82-58.309 0-103.82 45.508-103.82 103.82z" fill="#6739b7"/>
  </g>
  <g clip-path="url(#a)">
   <path d="m376.71 557.33c15.645 0 27.02 12.801 27.02 28.441 0 14.223-11.379 27.02-27.02 27.02-15.645 0-27.02-12.801-27.02-27.02 0-15.645 11.379-28.441 27.02-28.441z" fill="#6739b7" fill-rule="evenodd"/>
  </g>
 </g>
</svg>
